<svg xmlns="http://www.w3.org/2000/svg" viewBox="0 0 400 90" enable-background="new 0 0 400 90"><path fill="#F93434" d="M40 47c-.2-5 3.8-9 8.7-8.6 4 .3 7 3.4 7.3 7.3.4 5-3.6 9-8.6 8.6-3.8-.3-7-3.4-7.3-7.3zm42-1v-.4C81.8 35.2 77 26 69.4 20c-.7-.7-1-1.8-.4-2.6l2-3.8c2-3 .8-6.8-2-8.5h-.3c-3-1.7-6.8-.7-8.5 2.3l-3 5c-.3.6-1.2 1-2 .8-1.8-.3-3.3-.5-5.4-.6-5.5-.3-11.7 1-14 10.7-1.8 7.5-1.4 11.2-1 13 .2.7 1 1 1.4.4 2-2.8 5.2-4.8 9.4-5.6.8 0 2.6-.3 4.5-.2 6.6.5 14.7 3.2 23.3 10 3.7 3 6 5.4 7.5 7.2.4.5 1.2.2 1.2-.5v-.8-.5zM46 63c.5-.5.2-1.3-.4-1.4-3.4-.4-6.7-2-9.5-5.3-.6-.6-1.7-2-2.5-3.8-3-6-4.6-14.3-3-25 .8-4.8 1.6-8 2.5-10.2.2-.6-.5-1.2-1-.8-.3 0-.5.2-.7.4h-.5c0 .2-.2.3-.4.3-8.8 5.4-14.4 14.2-16 23.8 0 1-1 1.8-2 1.8h-4c-3.5 0-6 2.7-6 6.2 0 3.6 2.5 6.4 6 6.4H14c1 0 1.6.6 1.8 1.4.5 1.8 1 3.2 2 5 2.6 5 6.5 9.3 16.4 6.8 7-1.8 10.2-4.4 11.6-5.7zm27.5 6c1.2-1.2 2.2-2.4 3.3-4.2 3-4.6 4.8-10.2-2.3-17.5-5-5.3-9-6.7-10.7-7.2-.6 0-1.2.5-1 1 1.4 3.3 1.6 7 .2 11-.3.7-1 2.4-2 4-3.8 5.4-10.2 11-20.4 15-4.4 1.8-7.6 2.6-10 3-.5 0-.7 1-.2 1.3.3 0 .5.3.8.4l.4.3s.3 0 .4.2c9 5 19.5 5.3 28.5 2 1-.5 2 0 2.4.8l2.2 3.7c1.6 3 5.4 4 8.4 2.3 3-1.8 4.2-5.6 2.5-8.6l-3-5c-.4-.7-.3-1.6.3-2.3zm47-47.2l-18.8 49h11.3l3.8-10h17.7l3.7 10h11.4l-18.8-49h-10.3zm10 29h-9.6l4.8-12.3 4.8 12.3zM202 35.2c-2-1.3-4.3-2-7-2-2.5 0-5 .7-7 1.8-1.7 1-3.2 2.2-4.5 3.7-1-1.5-2.3-2.8-3.8-3.7-2-1-4-1.7-6.4-1.7-2.2 0-4.4.4-6.4 1.3-1.3.6-2.7 1.3-3.7 2.2v-3h-11v37h11V54.4c0-3.2.4-5.5 1-7 .4-1.3 1.2-2.4 2.2-3 1-1 2.2-1.2 3.4-1.2 1 0 2 .2 2.6.8.8.5 1.5 1.4 2 2.6.3 1.3.7 3.4.7 6.4v17.8h10V54.2c0-3.2.5-5.5 1-7 .5-1.2 1.4-2.2 2.4-3 1-.7 2-1 3.4-1 1.7 0 3 .5 4 1.6.5 1 1.3 2.8 1.3 7.4v18.6h10V49.5c0-4.3-.2-7.4-1-9.4-1-2-2.2-3.6-4.3-4.8zm32.5-2c-2.2 0-4.4.5-6.3 1.4-1.3.5-3 1.3-4 2.2v-16h-10v50h10v-2.5c2 1 2.8 1.7 4 2.2 1.8.8 4 1 6 1 4.8 0 9-1.7 12.4-5.4 3.4-3.5 5.2-8 5.2-13.5s-1.7-10.2-5-13.8c-3.4-3.6-7.5-5.4-12.3-5.4zm6.6 19.2c0 2.8-.7 5-2.3 6.7-1.6 2-3.6 2.7-6 2.7s-4.4-.8-6-2.5c-1.7-1.7-2.5-4-2.5-6.8s.8-5 2.5-6.6c1.6-1.7 3.6-2.5 6-2.5 2.5 0 4.4.8 6 2.5 1.7 1.8 2.4 4 2.4 6.6zM261.4 20c-1.7 0-3.3.6-4.6 2-1.2 1-2 2.7-2 4.5 0 1.8.8 3.4 2 4.7 1.3 1.3 3 2 4.7 2 1.8 0 3.3-.6 4.6-2 1.2-1.2 2-2.8 2-4.6 0-1.8-.8-3.4-2-4.7-1.3-1.4-3-2-4.7-2zm-5 50.8h10v-37h-10v37zm30.7-23l-3-1.5c-2-1-2.3-1.3-2.4-1.4-.3-.3-.3-.6-.3-.7 0-.2 0-.5.4-.7.4-.3 1-.5 1.7-.5 1.5 0 3.3 1 5.2 3l.8.8L296 40l-.5-.6c-1.4-2-3.3-3.5-5.4-4.5-2-1.2-4.3-1.7-6.7-1.7-3.5 0-6.4 1-8.7 3.2-2.3 2-3.5 4.7-3.5 7.7 0 4.6 3 8.5 9 11.5l3 1.4c2 1.2 3.2 2.3 3.2 3.2 0 .2 0 .6-.7 1-1 1-2.8 1-5.3-.3-1.2-.8-2.3-1.6-3.3-2.7l-.8-1-6.7 7.4.5.6c3.2 4.2 7.6 6.3 13 6.3 4 0 7.2-1 9.6-3.3 2.5-2.2 3.8-5 3.8-8.4 0-2.6-.7-5-2-6.7-1.5-2-3.8-3.7-7.4-5.4zm39.3-11c-1-1-2.2-1.7-3.4-2.2-2-1-4-1.3-6.3-1.3-4.8 0-8.8 1.8-12.2 5.4-3.3 3.6-5 8.3-5 13.8 0 5.4 1.8 10 5.2 13.6 3.5 3.8 7.6 5.6 12.4 5.6 2.2 0 4-.3 5.8-1 1.2-.6 2.5-1.4 3.5-2.3v2.5h11v-37h-11v3zm-1.6 9c1.6 1.7 2.4 3.8 2.4 6.6s-.7 5-2.3 6.8c-1.7 1.7-3.6 2.5-6 2.5-2.5 0-4.4-.8-6-2.6-1.7-1.6-2.5-3.8-2.5-6.6 0-2.7.8-4.8 2.4-6.6 1.6-1.7 3.6-2.5 6-2.5 2.5 0 4.5.8 6 2.5zM352.5 20c-2.7 0-5 .6-6.4 2-1.5 1-2.4 2.7-2.7 4.8 0 .8-.2 3-.2 7h-2.7v10h3v27h10v-27h6v-10h-5.5l.2-3c0-1 .3-1.2.3-1.2 0-.5 1.7-.5 4 0l1 .5v-8.5l-.5-.2c-2.3-1-4.4-1.3-6.3-1.3zM399 53.3c0-6-1.8-10.8-5.4-14.5-3.6-3.7-8.3-5.5-14-5.5-5.4 0-10 2-13.5 5.5-3.5 3.7-5.3 8.3-5.3 14 0 5.3 1.8 9.8 5.4 13.4 3.7 3.6 8.4 5.4 14 5.4 3.7 0 7-.6 9.6-2 2.7-1.2 5-3.3 7-6l.6-1-9-4.2-.5.5c-2.2 2-4.7 3-7.7 3-2.4 0-4.5-.7-6-2-1.3-1-2.2-2.2-2.7-4.2H399v-2.5zm-27-6.5c.8-1 1.5-2 2.3-2.5 1.6-1.2 3.5-1.7 5.7-1.7 2 0 3.8.4 5.3 1.5 1 1 2 1.8 2.5 2.8H372z"/></svg>