<?xml version="1.0" encoding="UTF-8" standalone="no"?>
<svg width="43px" height="59px" viewBox="0 0 43 59" version="1.1" xmlns="http://www.w3.org/2000/svg" xmlns:xlink="http://www.w3.org/1999/xlink">
    <!-- Generator: Sketch 40.3 (33839) - http://www.bohemiancoding.com/sketch -->
    <title>cryptopanic-logo-vert</title>
    <desc>Created with Sketch.</desc>
    <defs>
        <ellipse id="path-1" cx="17.0588235" cy="17.0588235" rx="15.6000004" ry="15.6000004"></ellipse>
        <mask id="mask-2" maskContentUnits="userSpaceOnUse" maskUnits="objectBoundingBox" x="0" y="0" width="31.2000008" height="31.2000008" fill="white">
            <use xlink:href="#path-1"></use>
        </mask>
    </defs>
    <g id="Page-4" stroke="none" stroke-width="1" fill="none" fill-rule="evenodd">
        <g id="cryptopanic-web-dark2" transform="translate(-20.000000, -16.000000)">
            <g id="cryptopanic-logo-vert" transform="translate(19.000000, 16.000000)">
                <g id="Group-2" transform="translate(0.323529, 39.235294)">
                    <path d="M2.50147135,3.69566316 C2.50147135,5.74132272 3.95852132,7.27556739 6.11997293,7.27556739 C7.92439905,7.27556739 8.89898214,6.11764689 8.89898214,6.11764689 L8.03054176,4.88253168 C8.03054176,4.88253168 7.23929608,5.73167338 6.19716763,5.73167338 C4.92345507,5.73167338 4.24800145,4.67989559 4.24800145,3.65706581 C4.24800145,2.66318405 4.87520839,1.68860096 6.19716763,1.68860096 C7.15245204,1.68860096 7.92439905,2.3930026 7.92439905,2.3930026 L8.70599539,1.11929004 C8.70599539,1.11929004 7.82790567,0.14470695 6.11997293,0.14470695 C4.04536536,0.14470695 2.50147135,1.68860096 2.50147135,3.69566316 L2.50147135,3.69566316 Z M9.92181192,7.15977534 L11.610446,7.15977534 L11.610446,4.83428499 L12.4016917,4.83428499 L13.6271575,7.15977534 L15.5087784,7.15977534 L14.1675204,4.74744096 C14.0034817,4.45796083 13.9069883,4.33251944 13.9069883,4.33251944 L13.9069883,4.31322077 C14.5920913,3.96584461 14.9394674,3.1649496 14.9394674,2.43159995 C14.9394674,1.42806884 14.4473512,0.723667203 13.6657549,0.424537739 C13.3666254,0.308745689 13.0288986,0.260499001 12.324497,0.260499001 L9.92181192,0.260499001 L9.92181192,7.15977534 Z M11.610446,3.38688436 L11.610446,1.70789963 L12.1797569,1.70789963 C13.0288986,1.70789963 13.2218854,2.01667843 13.2218854,2.53774266 C13.2218854,3.0877549 12.8841585,3.38688436 12.3437956,3.38688436 L11.610446,3.38688436 Z M17.9597101,7.15977534 L19.6483442,7.15977534 L19.6483442,4.33251944 L21.9255878,0.260499001 L20.0053696,0.260499001 L19.2334226,1.92018506 C19.0114879,2.3930026 18.8185011,2.91406682 18.8185011,2.91406682 L18.7992025,2.91406682 C18.7992025,2.91406682 18.6062157,2.3930026 18.3842809,1.92018506 L17.6026846,0.260499001 L15.6824664,0.260499001 L17.9597101,4.33251944 L17.9597101,7.15977534 Z M22.6975348,7.15977534 L24.3861689,7.15977534 L24.3861689,5.02727174 L25.5633881,5.02727174 C26.904646,5.02727174 27.8116837,4.02374064 27.8116837,2.63423603 C27.8116837,1.24473143 26.904646,0.260499001 25.5633881,0.260499001 L22.6975348,0.260499001 L22.6975348,7.15977534 Z M24.3861689,3.57987111 L24.3861689,1.70789963 L25.2449599,1.70789963 C25.8046215,1.70789963 26.0941016,2.0842238 26.0941016,2.63423603 C26.0941016,3.18424827 25.8046215,3.57987111 25.2160119,3.57987111 L24.3861689,3.57987111 Z M30.1371741,7.15977534 L31.8258081,7.15977534 L31.8258081,1.70789963 L33.9197144,1.70789963 L33.9197144,0.260499001 L28.0432678,0.260499001 L28.0432678,1.70789963 L30.1371741,1.70789963 L30.1371741,7.15977534 Z M34.2960385,3.66671515 C34.2960385,5.69307603 35.8206339,7.27556739 37.9048908,7.27556739 C39.9891477,7.27556739 41.513743,5.69307603 41.513743,3.66671515 C41.513743,1.68860096 39.9891477,0.14470695 37.9048908,0.14470695 C35.8206339,0.14470695 34.2960385,1.68860096 34.2960385,3.66671515 L34.2960385,3.66671515 Z M36.0425686,3.66671515 C36.0425686,2.53774266 36.8724117,1.68860096 37.9048908,1.68860096 C38.9373699,1.68860096 39.7672129,2.53774266 39.7672129,3.66671515 C39.7672129,4.84393433 38.9373699,5.73167338 37.9048908,5.73167338 C36.8724117,5.73167338 36.0425686,4.84393433 36.0425686,3.66671515 L36.0425686,3.66671515 Z" id="CRYPTO" fill="#00B7DB"></path>
                    <path d="M6.9838567,10.9595312 C7.61234282,11.4939581 7.92658116,12.3148257 7.92658116,13.4221583 C7.92658116,14.529491 7.60379211,15.3396701 6.95820433,15.85272 C6.31261656,16.3657699 5.32714801,16.622291 4.00176913,16.622291 L2.8089341,16.622291 L2.8089341,19.1233967 L0.808049536,19.1233967 L0.808049536,10.1578947 L3.97611676,10.1578947 C5.35280063,10.1578947 6.35537059,10.4251042 6.9838567,10.9595312 L6.9838567,10.9595312 Z M5.51525874,14.4867315 C5.75468202,14.2173803 5.87439186,13.824048 5.87439186,13.3067227 C5.87439186,12.7893974 5.71834153,12.4217171 5.40623618,12.2036709 C5.09413083,11.9856247 4.60887842,11.8766033 3.9504644,11.8766033 L2.8089341,11.8766033 L2.8089341,14.8907563 L4.15568333,14.8907563 C4.82264818,14.8907563 5.27583545,14.7560827 5.51525874,14.4867315 L5.51525874,14.4867315 Z M15.8659885,19.1233967 L15.0322866,17.1866431 L11.2742149,17.1866431 L10.440513,19.1233967 L8.31136665,19.1233967 L12.1848739,10.1578947 L14.1216276,10.1578947 L17.9951349,19.1233967 L15.8659885,19.1233967 Z M13.1596639,12.8257408 L12.0309598,15.429456 L14.2755418,15.429456 L13.1596639,12.8257408 Z M25.8191066,10.1578947 L27.8199912,10.1578947 L27.8199912,19.1233967 L25.8191066,19.1233967 L21.5479876,13.5055285 L21.5479876,19.1233967 L19.5471031,19.1233967 L19.5471031,10.1578947 L21.4197258,10.1578947 L25.8191066,15.9296771 L25.8191066,10.1578947 Z M30.539142,10.1578947 L32.5400265,10.1578947 L32.5400265,19.1233967 L30.539142,19.1233967 L30.539142,10.1578947 Z M39.3763821,17.3533835 C40.3597278,17.3533835 41.1634939,16.9643265 41.7877046,16.1862008 L43.0703229,17.5072977 C42.0527739,18.6531091 40.8535378,19.2260062 39.4725785,19.2260062 C38.0916192,19.2260062 36.9543757,18.7899203 36.0608138,17.9177355 C35.1672519,17.0455507 34.7204777,15.9446477 34.7204777,14.6149934 C34.7204777,13.2853391 35.1758026,12.1758853 36.0864662,11.2865989 C36.9971297,10.3973124 38.1108588,9.95267581 39.4276869,9.95267581 C40.8984299,9.95267581 42.1297311,10.5127469 43.1216276,11.6329058 L41.8774878,13.0437859 C41.2447263,12.2571094 40.4580616,11.8637771 39.5174701,11.8637771 C38.764997,11.8637771 38.1215566,12.1096098 37.5871296,12.6012826 C37.0527026,13.0929554 36.7854931,13.7556349 36.7854931,14.589341 C36.7854931,15.4230471 37.0377389,16.0921396 37.5422379,16.5966387 C38.046737,17.1011377 38.6581123,17.3533835 39.3763821,17.3533835 L39.3763821,17.3533835 Z" id="PANIC" fill="#FFFFFF"></path>
                </g>
                <g id="Group-3" transform="translate(4.823529, 0.000000)">
                    <ellipse id="Oval-Copy" fill="#FF9933" cx="17.0588235" cy="17.0588235" rx="17.0588235" ry="17.0588235"></ellipse>
                    <use id="Oval-Copy-2" stroke="#000000" mask="url(#mask-2)" stroke-width="2" opacity="0.5" xlink:href="#path-1"></use>
                    <path d="M14.4174358,28.4514527 C12.5691292,27.8246642 11.5192035,27.1428943 10.7755061,26.0762543 C10.3927207,25.5374361 10.2067964,25.1305734 10.1193026,24.6907218 C10.0536822,24.3498369 9.91150479,23.7560373 9.81307425,23.3601709 C9.703707,22.9203193 9.62714991,22.1395828 9.61621319,21.34785 C9.59433974,20.1382581 9.58340301,20.0392915 9.30998486,19.676414 C8.85064238,19.0716181 8.26005918,17.7410671 8.26005918,17.3122118 C8.26005918,16.9823232 8.38036316,16.7733937 8.91626273,16.1576015 C9.62714991,15.3218835 9.68183354,15.2888947 10.6770756,15.112954 C11.5192035,14.959006 12.1097867,14.6621062 12.3941416,14.2662398 C12.6456863,13.9033622 13.0394084,12.2649151 13.1159655,11.2532565 C13.2034593,10.1426313 13.892473,7.70145516 14.4283726,6.62381883 C14.8549049,5.75511199 15.5111084,5.27127527 16.40792,5.16131238 C17.9718718,4.96337918 19.0108607,5.43621961 19.5905072,6.62381883 C20.1264068,7.70145516 20.8154205,10.1426313 20.9029143,11.2532565 C20.9794714,12.2649151 21.3731935,13.9033622 21.6247382,14.2662398 C21.9090931,14.6621062 22.4996763,14.959006 23.3418042,15.112954 C24.3370462,15.2888947 24.3917298,15.3218835 25.102617,16.1576015 C25.6385166,16.7733937 25.7588206,16.9823232 25.7588206,17.3122118 C25.7588206,17.7410671 25.1682374,19.0716181 24.7088949,19.676414 C24.4354768,20.0392915 24.42454,20.1382581 24.4026666,21.34785 C24.3917298,22.1395828 24.3151728,22.9203193 24.2058055,23.3601709 C24.107375,23.7560373 23.9651975,24.3498369 23.8995772,24.6907218 C23.8120834,25.1305734 23.626159,25.5374361 23.2433736,26.0762543 C22.510613,27.1209017 21.4497506,27.8246642 19.678001,28.4294601 C18.4749611,28.8473191 18.2781001,28.880308 17.085997,28.8913043 C15.8392102,28.9132969 15.7626531,28.9023006 14.4174358,28.4514527 L14.4174358,28.4514527 Z M14.9752089,23.6900595 C15.1611332,23.6240818 15.368931,23.3601709 15.5876655,22.9203193 C15.9048306,22.2825345 15.9157673,22.2165568 15.8173368,21.6337535 C15.609539,20.5451208 14.9861456,19.7423917 14.0893341,19.4015068 C12.536319,18.8187035 10.8520632,19.4894771 11.3660893,20.4901394 C11.4645199,20.66608 11.6941911,20.929991 11.8801154,21.0729427 C12.5253823,21.5457832 13.0394084,22.1285865 13.2909531,22.6454121 C13.4659407,22.9972933 13.6956119,23.2612043 14.0346504,23.48113 C14.6033602,23.8440076 14.5924235,23.8440076 14.9752089,23.6900595 L14.9752089,23.6900595 Z M19.9842293,23.48113 C20.3232678,23.2612043 20.5529391,22.9972933 20.7279267,22.6454121 C20.9794714,22.1285865 21.4934975,21.5457832 22.1387643,21.0729427 C22.3246887,20.929991 22.5543599,20.66608 22.6527904,20.4901394 C23.1668166,19.4894771 21.4825608,18.8187035 19.9295457,19.4015068 C19.0327342,19.7423917 18.4093408,20.5451208 18.201543,21.6337535 C18.1031125,22.2165568 18.1140492,22.2825345 18.4312142,22.9203193 C18.7374426,23.5251152 18.999924,23.7670336 19.3717727,23.7890261 C19.4264563,23.8000224 19.7108112,23.6570707 19.9842293,23.48113 L19.9842293,23.48113 Z M17.9499983,17.1472675 C18.1031125,17.0483009 18.3437204,16.7294085 18.4640244,16.4545013 C18.6936957,15.9706646 18.7046324,15.7727314 18.7046324,13.1886034 C18.6936957,8.88905439 18.3109103,7.65747001 17.0094399,7.65747001 C16.2001222,7.65747001 15.7954633,8.16329931 15.5111084,9.52683916 C15.368931,10.2525942 15.3251841,11.0113382 15.3142474,13.1886034 C15.3142474,15.9046868 15.3142474,15.948672 15.5876655,16.4874902 C15.926704,17.1692601 16.3751098,17.433171 17.1406806,17.3781896 C17.4250355,17.356197 17.7968841,17.2572304 17.9499983,17.1472675 L17.9499983,17.1472675 Z" id="Shape" fill="#FFFFFF" transform="translate(17.009440, 17.007658) scale(1, -1) translate(-17.009440, -17.007658) "></path>
                </g>
            </g>
        </g>
    </g>
</svg>